<svg width="36" height="36" viewBox="0 0 36 36" fill="none" xmlns="http://www.w3.org/2000/svg">
<path fill-rule="evenodd" clip-rule="evenodd" d="M0.5 18C0.5 8.33502 8.33502 0.5 18 0.5C27.665 0.5 35.5 8.33502 35.5 18C35.5 27.665 27.665 35.5 18 35.5C8.33502 35.5 0.5 27.665 0.5 18ZM18 1.5C8.8873 1.5 1.5 8.8873 1.5 18C1.5 27.1127 8.8873 34.5 18 34.5C27.1127 34.5 34.5 27.1127 34.5 18C34.5 8.8873 27.1127 1.5 18 1.5Z" fill="#E5E5E5"/>
<path d="M8.22316 17.9619C8.1039 14.7604 10.8543 11.8019 13.9976 11.7635C15.5996 11.6242 17.1582 12.2585 18.3705 13.2929C17.8732 13.8505 17.3672 14.4015 16.8267 14.9174C15.7594 14.2563 14.4743 13.7525 13.227 14.1999C11.215 14.784 9.99658 17.206 10.7411 19.2127C11.3577 21.3085 13.858 22.4587 15.8176 21.5783C16.8322 21.2079 17.5012 20.2534 17.7948 19.2277C16.6319 19.2041 15.4687 19.2189 14.3059 19.1861C14.303 18.4807 14.3001 17.778 14.303 17.0726C16.2422 17.0696 18.1844 17.0637 20.1266 17.0814C20.2458 18.8098 19.9957 20.6595 18.8937 22.0467C17.3846 24.0268 14.5965 24.608 12.3284 23.8312C9.92128 23.0251 8.17077 20.5527 8.22316 17.9619Z" fill="#666666"/>
<path d="M23.9067 15.2937C24.4824 15.2937 25.058 15.2937 25.6364 15.2937C25.6395 15.8837 25.6451 16.4766 25.6482 17.0664C26.2266 17.0723 26.8082 17.0752 27.3869 17.0782C27.3869 17.6682 27.3869 18.2549 27.3869 18.8449C26.8085 18.8479 26.2269 18.8508 25.6482 18.8538C25.6424 19.4467 25.6395 20.0364 25.6364 20.6294C25.058 20.6264 24.479 20.6294 23.9035 20.6294C23.898 20.0364 23.898 19.4467 23.8919 18.8567C23.3135 18.8505 22.7319 18.8479 22.1533 18.8446C22.1533 18.2547 22.1533 17.6679 22.1533 17.0779C22.7319 17.0749 23.3106 17.072 23.8919 17.0661C23.8948 16.4766 23.9006 15.8837 23.9067 15.2937Z" fill="#666666"/>
</svg>
