<svg width="36" height="36" viewBox="0 0 36 36" fill="none" xmlns="http://www.w3.org/2000/svg">
<path fill-rule="evenodd" clip-rule="evenodd" d="M0.5 18C0.5 8.33502 8.33502 0.5 18 0.5C27.665 0.5 35.5 8.33502 35.5 18C35.5 27.665 27.665 35.5 18 35.5C8.33502 35.5 0.5 27.665 0.5 18ZM18 1.5C8.8873 1.5 1.5 8.8873 1.5 18C1.5 27.1127 8.8873 34.5 18 34.5C27.1127 34.5 34.5 27.1127 34.5 18C34.5 8.8873 27.1127 1.5 18 1.5Z" fill="#E5E5E5"/>
<path d="M22.8089 11.8003C21.7556 10.7737 20.298 10.2083 18.7046 10.2083C16.2706 10.2083 14.7736 11.2213 13.9464 12.071C12.9269 13.1183 12.3423 14.5088 12.3423 15.8861C12.3423 17.6155 13.0547 18.9428 14.2478 19.4366C14.3279 19.47 14.4085 19.4867 14.4875 19.4867C14.7392 19.4867 14.9386 19.3195 15.0077 19.0513C15.048 18.8974 15.1413 18.5178 15.1818 18.353C15.2687 18.0276 15.1985 17.871 15.0091 17.6444C14.6641 17.2299 14.5034 16.7397 14.5034 16.1017C14.5034 14.2068 15.8931 12.1928 18.4688 12.1928C20.5126 12.1928 21.7821 13.3722 21.7821 15.2706C21.7821 16.4686 21.528 17.5781 21.0663 18.3948C20.7455 18.9623 20.1815 19.6387 19.3155 19.6387C18.941 19.6387 18.6046 19.4825 18.3924 19.2103C18.1919 18.9529 18.1258 18.6203 18.2064 18.2738C18.2975 17.8823 18.4217 17.4738 18.542 17.079C18.7612 16.3579 18.9685 15.6767 18.9685 15.1333C18.9685 14.2038 18.4057 13.5793 17.5682 13.5793C16.5038 13.5793 15.6699 14.677 15.6699 16.0782C15.6699 16.7654 15.8498 17.2794 15.9312 17.4768C15.7971 18.0536 15.0002 21.483 14.849 22.1297C14.7616 22.5072 14.2351 25.4888 15.1066 25.7266C16.0858 25.9937 16.961 23.0898 17.0501 22.7617C17.1223 22.4948 17.3749 21.4857 17.5297 20.8653C18.0024 21.3276 18.7635 21.6402 19.5041 21.6402C20.9002 21.6402 22.1557 21.0023 23.0394 19.8442C23.8965 18.7209 24.3686 17.1552 24.3686 15.4358C24.3686 14.0917 23.8 12.7665 22.8089 11.8003Z" fill="#666666"/>
</svg>
